<svg xmlns="http://www.w3.org/2000/svg" viewBox="0 0 55 55" xml:space="preserve" width="55" height="55" class="featureSvg_GfXr" role="img"><g transform="matrix(1.01852 0 0 1.01852 -.51 -.51)" style="stroke-width:0.9818182"><circle r="27" cy="27.5" cx="27.5" style="color:#000;clip-rule:nonzero;display:inline;overflow:visible;visibility:visible;opacity:1;isolation:auto;mix-blend-mode:normal;color-interpolation:sRGB;color-interpolation-filters:linearRGB;solid-color:#000;solid-opacity:1px;fill:#fff;fill-opacity:1;fill-rule:nonzero;stroke:none;stroke-width:0.9818182;stroke-linecap:square;stroke-linejoin:miter;stroke-miterlimit:4;stroke-dasharray:none;stroke-dashoffset:0;stroke-opacity:1;color-rendering:auto;image-rendering:auto;shape-rendering:auto;text-rendering:auto;enable-background:accumulate"></circle><path style="opacity:1;fill:#2a3172;fill-opacity:1;stroke-width:0.98181832" d="M32.396 4.54v19.204c-2 2.083-2.174 6.34-.26 10.416 1.043 2.174 1.652 4.62 1.652 7.065v6.432c0 2.898-2.261 5.344-5.131 5.344h-.087c-2.783 0-5.132-2.355-5.132-5.344v-6.341c0-2.446.61-4.891 1.653-7.065 1.913-4.076 1.74-8.424-.261-10.417V4.541Zm-7.566-.633L23.7 3h10l-1.13.906zm-1.305-.634v19.655c.29.16.562.276.87.453V4.36Zm10.263 19.565V3.182l-.87 1.177v18.932Z"></path></g></svg>