<svg xmlns="http://www.w3.org/2000/svg" xmlns:xlink="http://www.w3.org/1999/xlink" viewBox="0 0 243.44 243.92"><defs><linearGradient id="a" x1="289.54" y1="417.6" x2="495.73" y2="417.6" gradientUnits="userSpaceOnUse"><stop offset="0" stop-color="#d8ff7e"/><stop offset="1" stop-color="#97e7a2"/></linearGradient></defs><title>Bergamot</title><path d="M377.06,382.73c-3.82-20.74-14.91-58.61-47.94-69.56-29-9.63-57.27-26.8-76.83-35.14,3.82,20.74,15.69,56.48,47.94,69.56C328.83,359.18,357.81,372.33,377.06,382.73Z" transform="translate(-252.29 -278.03)" style="fill:#ebffb3"/><path d="M495.41,399.48A20.84,20.84,0,0,0,484,384.34a20.86,20.86,0,0,0-16.88-29.24,20.86,20.86,0,0,0-25.87-21.71,20.86,20.86,0,0,0-31.73-11.55,20.86,20.86,0,0,0-33.77,0,20.84,20.84,0,0,0-18.81-2.31c-.59.21-1.15.46-1.7.72,23.68,23.42,37.4,80.55,37.4,80.55s-53.5-26.57-86.24-40.48a20.86,20.86,0,0,0-5.12,24,20.86,20.86,0,0,0-5.86,33.25,20.86,20.86,0,0,0,5.86,33.25,20.86,20.86,0,0,0,16.88,29.24A20.86,20.86,0,0,0,344,501.8a20.86,20.86,0,0,0,31.73,11.55,20.86,20.86,0,0,0,33.77,0,20.86,20.86,0,0,0,31.73-11.55,20.86,20.86,0,0,0,25.87-21.71A20.86,20.86,0,0,0,484,450.85a20.86,20.86,0,0,0,5.86-33.25A20.84,20.84,0,0,0,495.41,399.48Z" transform="translate(-252.29 -278.03)" style="fill:url(#a)"/></svg>